<?xml version="1.0" encoding="UTF-8" standalone="no"?>
<!DOCTYPE svg PUBLIC "-//W3C//DTD SVG 1.1//EN" "http://www.w3.org/Graphics/SVG/1.1/DTD/svg11.dtd">
<svg width="100%" height="100%" viewBox="0 0 597 381" version="1.1" xmlns="http://www.w3.org/2000/svg" xmlns:xlink="http://www.w3.org/1999/xlink" xml:space="preserve" xmlns:serif="http://www.serif.com/" style="fill-rule:evenodd;clip-rule:evenodd;stroke-linejoin:round;stroke-miterlimit:2;">
    <g transform="matrix(1,0,0,1,-1094.04,-2219.95)">
        <g id="haut-pokéball" serif:id="haut pokéball">
        </g>
        <g id="bas-pokéball" serif:id="bas pokéball">
        </g>
        <g id="haut-pokéball1" serif:id="haut pokéball">
        </g>
        <g id="bas-pokéball1" serif:id="bas pokéball" transform="matrix(1,0,0,1,-579.471,90.8412)">
            <g transform="matrix(1.61046,0,0,1.61046,-132.228,-1274.18)">
                <path d="M1477.43,2162.16C1477.44,2162.84 1477.44,2163.52 1477.44,2164.2C1477.44,2258.63 1400.77,2335.3 1306.34,2335.3C1211.91,2335.3 1135.25,2258.63 1135.25,2164.2C1135.25,2163.52 1135.25,2162.84 1135.26,2162.16L1477.43,2162.16Z" style="fill:white;"/>
                <path d="M1485.19,2162.07C1485.2,2162.78 1485.2,2163.49 1485.2,2164.2C1485.2,2262.92 1405.06,2343.06 1306.34,2343.06C1207.63,2343.06 1127.49,2262.92 1127.49,2164.2C1127.49,2163.49 1127.49,2162.78 1127.5,2162.07L1127.59,2154.4L1485.1,2154.4L1485.19,2162.07ZM1477.43,2162.16L1135.26,2162.16C1135.25,2162.84 1135.25,2163.52 1135.25,2164.2C1135.25,2258.63 1211.91,2335.3 1306.34,2335.3C1400.77,2335.3 1477.44,2258.63 1477.44,2164.2C1477.44,2163.52 1477.44,2162.84 1477.43,2162.16Z"/>
            </g>
            <g transform="matrix(1,0,0,1,579.471,-90.8412)">
                <path d="M1116.57,2298.74C1117.88,2370.5 1139.47,2430.99 1181.17,2480.32C1229.83,2535.69 1288.79,2566.49 1356.9,2575.5C1461.47,2587.53 1521.83,2551.44 1575.35,2507.93C1354.49,2614.87 1192.01,2449.05 1156.61,2298.74L1116.57,2298.74Z" style="fill:rgb(209,214,218);"/>
            </g>
            <g transform="matrix(1,0,0,1,1248.78,-169.248)">
                <circle cx="722.806" cy="2367.39" r="46.493" style="fill:white;"/>
                <path d="M722.806,2308.4C755.365,2308.4 781.799,2334.83 781.799,2367.39C781.799,2399.95 755.365,2426.38 722.806,2426.38C690.246,2426.38 663.812,2399.95 663.812,2367.39C663.812,2334.83 690.246,2308.4 722.806,2308.4ZM722.806,2320.9C697.145,2320.9 676.312,2341.73 676.312,2367.39C676.312,2393.05 697.145,2413.88 722.806,2413.88C748.466,2413.88 769.299,2393.05 769.299,2367.39C769.299,2341.73 748.466,2320.9 722.806,2320.9Z"/>
            </g>
        </g>
    </g>
</svg>
