<?xml version="1.0" encoding="UTF-8" standalone="no"?>
<!DOCTYPE svg PUBLIC "-//W3C//DTD SVG 1.1//EN" "http://www.w3.org/Graphics/SVG/1.1/DTD/svg11.dtd">
<svg width="100%" height="100%" viewBox="0 0 625 318" version="1.1" xmlns="http://www.w3.org/2000/svg" xmlns:xlink="http://www.w3.org/1999/xlink" xml:space="preserve" xmlns:serif="http://www.serif.com/" style="fill-rule:evenodd;clip-rule:evenodd;stroke-linejoin:round;stroke-miterlimit:2;">
    <g transform="matrix(1,0,0,1,-411.503,-1843.55)">
        <g id="haut-pokéball" serif:id="haut pokéball" transform="matrix(1,0,0,1,16.459,-180.217)">
            <g transform="matrix(1.61046,0,0,1.61046,-1394.46,-1163.52)">
                <path d="M1135.26,2162.16C1136.35,2068.67 1212.59,1993.11 1306.34,1993.11C1400.09,1993.11 1476.33,2068.67 1477.43,2162.16L1135.26,2162.16Z" style="fill:rgb(152,105,160);"/>
                <path d="M1127.5,2162.07C1128.64,2064.34 1208.34,1985.34 1306.34,1985.34C1404.35,1985.34 1484.05,2064.34 1485.19,2162.07L1485.28,2169.93L1127.4,2169.93L1127.5,2162.07ZM1135.26,2162.16L1477.43,2162.16C1476.33,2068.67 1400.09,1993.11 1306.34,1993.11C1212.59,1993.11 1136.35,2068.67 1135.26,2162.16Z"/>
            </g>
            <g transform="matrix(1,0,0,1,-2.2439,33.0973)">
                <path d="M984.142,2247.94C986.286,2260.45 986.914,2272.96 987.128,2285.46L884.792,2285.46C908.561,2266.65 918.235,2244.82 916.27,2220.49L984.142,2247.94Z" style="fill:rgb(101,55,102);"/>
            </g>
            <g transform="matrix(1,0,0,1,-2.2439,33.0973)">
                <path d="M439.302,2246.37C436.851,2260.04 435.918,2273 436.077,2285.46L503.787,2285.46C500.082,2262.38 503.208,2240.16 511.388,2218.05L439.302,2246.37Z" style="fill:rgb(101,55,102);"/>
            </g>
            <g transform="matrix(1,0,0,1,3.62779,-1.41743)">
                <path d="M756.664,2167.45C743.357,2151.31 739.929,2143.99 711.603,2139.86C683.225,2138.91 670.578,2152.74 658.993,2174.8C646.224,2199.12 663.568,2243.43 698.046,2249.09C728.082,2254.03 753.072,2240.9 756.602,2225.13L750.992,2213.91C733.823,2221.38 723.06,2227.2 709.579,2224.32C695.113,2221.22 686.74,2203.66 687.42,2190.12C688.004,2178.51 696.866,2165.77 711.603,2161.53C727.288,2157.01 734.958,2164.16 748.81,2179.07L756.664,2167.45Z" style="fill:white;"/>
            </g>
            <g transform="matrix(1.13965,0,0,1.05102,-60.2955,-115.653)">
                <path d="M438.375,2267.79C466.544,2262.76 503.94,2244.24 536.88,2197.44C567.887,2153.38 589.323,2111.93 591.033,2073.43C537.069,2063.95 481.854,2070.99 446.114,2116.87C410.073,2163.15 413.355,2212.24 438.375,2267.79Z" style="fill:rgb(229,113,158);"/>
                <path d="M428.52,2273.01C401.353,2212.69 398.602,2159.45 437.735,2109.2C476.034,2060.03 534.958,2051.53 592.786,2061.69L602.459,2063.39L601.988,2074C600.191,2114.48 578.198,2158.33 545.599,2204.65C510.401,2254.66 470.257,2274.15 440.157,2279.53L432.102,2280.96L428.52,2273.01ZM438.375,2267.79C466.544,2262.76 503.94,2244.24 536.88,2197.44C567.887,2153.38 589.323,2111.93 591.033,2073.43C537.069,2063.95 481.854,2070.99 446.114,2116.87C410.073,2163.15 413.355,2212.24 438.375,2267.79Z"/>
            </g>
            <g transform="matrix(1,0,0,1,-2.2439,33.0973)">
                <path d="M419.823,2154.2C419.532,2181.63 427.227,2209.18 441.543,2234.74C467.647,2230.73 490.305,2219.17 511.388,2204.18C448.239,2206.45 428.308,2183.65 419.823,2154.2Z" style="fill:rgb(149,67,111);"/>
            </g>
            <g transform="matrix(-1.13965,0,0,1.05102,1474.97,-115.653)">
                <path d="M438.375,2267.79C466.544,2262.76 503.94,2244.24 536.88,2197.44C567.887,2153.38 589.323,2111.93 591.033,2073.43C537.069,2063.95 481.854,2070.99 446.114,2116.87C410.073,2163.15 413.355,2212.24 438.375,2267.79Z" style="fill:rgb(229,113,158);"/>
                <path d="M440.157,2279.53C470.257,2274.15 510.401,2254.66 545.599,2204.65C578.198,2158.33 600.191,2114.48 601.988,2074L602.459,2063.39L592.786,2061.69C534.958,2051.53 476.034,2060.03 437.735,2109.2C398.602,2159.45 401.353,2212.69 428.52,2273.01L432.102,2280.96L440.157,2279.53ZM438.375,2267.79C413.355,2212.24 410.073,2163.15 446.114,2116.87C481.854,2070.99 537.069,2063.95 591.033,2073.43C589.323,2111.93 567.887,2153.38 536.88,2197.44C503.94,2244.24 466.544,2262.76 438.375,2267.79Z"/>
            </g>
            <g transform="matrix(1,0,0,1,-2.2439,33.0973)">
                <path d="M849.384,2138.94C881.837,2187.58 920.993,2225.34 977.614,2234.74C985.268,2220.59 991.309,2204.52 995.512,2186.29C954.24,2203.98 905.614,2188.57 849.384,2138.94Z" style="fill:rgb(149,67,111);"/>
            </g>
            <g transform="matrix(0.994917,-0.100699,0.100699,0.994917,-206.808,117.091)">
                <path d="M756.664,2026.61C756.664,2026.61 711.496,2012.97 689.506,2020.15C667.516,2027.33 662.579,2032.96 676.491,2038.44C690.403,2043.93 717.779,2028.92 732.139,2038.44C746.5,2047.97 739.32,2055.6 750.539,2065.02C761.759,2074.45 771.183,2075.35 779.261,2072.2C787.339,2069.06 791.378,2056.95 788.685,2050.21C785.993,2043.48 778.363,2038.44 772.978,2034.46C767.593,2030.47 756.664,2026.61 756.664,2026.61Z" style="fill:rgb(188,144,192);"/>
            </g>
            <g transform="matrix(1,0,0,1,-0.520601,30.973)">
                <path d="M889.167,2048.11C887.926,2049.06 880.547,2055.2 889.217,2061.1C899.579,2068.16 900.869,2060.07 909.198,2064.67C917.528,2069.26 918.964,2075.01 926.432,2071.85C933.899,2068.69 932.176,2059.5 923.847,2053.18C915.517,2046.86 903.779,2046.5 901.487,2046.38C899.558,2046.27 892.38,2045.66 889.167,2048.11Z" style="fill:rgb(244,185,205);"/>
            </g>
            <g transform="matrix(1,0,0,1,-2.2439,33.0973)">
                <path d="M946.633,2072.76C946.633,2072.76 940.751,2067.98 940.604,2072.76C940.457,2077.54 946.045,2079.01 949.133,2080.62C952.221,2082.24 953.545,2081.51 951.339,2078.12C949.133,2074.74 946.633,2072.76 946.633,2072.76Z" style="fill:rgb(244,185,205);"/>
            </g>
            <g transform="matrix(1,0,0,1,-2.2439,33.0973)">
                <path d="M602.655,2034.93C602.655,2034.93 565.876,2029.49 555.838,2030.62C541.564,2032.22 519.936,2036.36 534.584,2036.94C549.232,2037.51 556.413,2034.64 568.476,2034.93C580.539,2035.22 603.32,2038.42 603.32,2038.42C606.432,2038.74 607.859,2035.74 602.655,2034.93Z" style="fill:rgb(244,185,205);"/>
            </g>
        </g>
        <g id="bas-pokéball" serif:id="bas pokéball">
        </g>
        <g id="haut-pokéball1" serif:id="haut pokéball">
        </g>
        <g id="bas-pokéball1" serif:id="bas pokéball">
        </g>
    </g>
</svg>
